<svg width="38" height="38" viewBox="0 0 38 38" fill="none" xmlns="http://www.w3.org/2000/svg">
<path d="M17.6216 18.027L17.8702 18.0001L17.8701 17.9998L17.87 17.9987L17.8695 17.9942L17.8676 17.9764L17.8601 17.9071L17.8566 17.8745C17.8581 17.8842 17.8596 17.8939 17.8611 17.9036L17.8786 18.0152L17.9739 18.0758C18.0131 18.1007 18.0538 18.1268 18.0954 18.1536C17.9857 18.1675 17.8806 18.1921 17.781 18.2238C17.7901 18.2136 17.7989 18.2037 17.8074 18.1943L17.8822 18.1113L17.8702 18.0002L17.6216 18.027ZM15.047 33.8027C8.50312 32.0597 3.68243 26.0925 3.68243 19C3.68243 10.5403 10.5403 3.68243 19 3.68243C27.4597 3.68243 34.3176 10.5403 34.3176 19C34.3176 25.9484 29.6908 31.8168 23.3497 33.6912C23.33 32.6303 23.3561 31.0835 23.536 29.645C24.6149 28.3559 25.1911 27.3079 25.4931 26.2872C25.7984 25.2553 25.8176 24.2694 25.8176 23.1351C25.8176 20.8999 26.1341 19.4675 27.0252 16.1459C27.251 15.3044 27.3567 14.6622 27.3794 14.1707C27.4019 13.681 27.3428 13.3248 27.2234 13.0672C27.1001 12.801 26.9174 12.6518 26.728 12.5764C26.5527 12.5066 26.3861 12.5067 26.3031 12.5068L26.2973 12.5068C26.2003 12.5068 26.1322 12.5566 26.1048 12.5787C26.0707 12.6062 26.0424 12.6385 26.0202 12.6667C25.9871 12.7087 25.9532 12.7601 25.9192 12.8171C26.0204 12.4772 26.0966 12.1678 26.1388 11.9044C26.3136 10.8117 25.8811 10.0303 25.2505 9.76008C24.9393 9.62671 24.5899 9.62688 24.284 9.78394C23.9771 9.94155 23.7406 10.243 23.624 10.6628C23.4663 11.2306 22.9521 12.581 22.3657 14.0549C21.7994 15.478 21.1727 16.9993 20.7537 18.0011C20.7394 18.0046 20.7232 18.0075 20.7054 18.0092C20.6634 18.0132 20.6119 18.0105 20.5538 17.9917C20.5417 17.9526 20.5273 17.8962 20.5112 17.8207C20.4733 17.6423 20.4318 17.3869 20.3872 17.0696C20.2982 16.4365 20.1996 15.5795 20.0925 14.649L20.0922 14.6462C19.9483 13.3956 19.7894 12.0147 19.6197 10.888C19.5349 10.3245 19.4467 9.81966 19.3552 9.42405C19.3095 9.22643 19.2621 9.05163 19.2124 8.90838C19.1649 8.77155 19.1076 8.63968 19.0331 8.54653C18.8437 8.30985 18.6247 8.15985 18.3895 8.09145C18.155 8.02327 17.9228 8.0415 17.7149 8.1108C17.3089 8.24612 16.9724 8.58286 16.8243 8.92855C16.794 8.99923 16.7844 9.08536 16.7797 9.15363C16.7768 9.19496 16.7752 9.24084 16.7747 9.29061C16.6632 9.10404 16.453 9.06385 16.2961 9.07013C16.1222 9.07709 15.9276 9.13847 15.7382 9.23315C15.3564 9.42406 14.9333 9.78177 14.6478 10.2814C14.5929 10.3774 14.558 10.4988 14.5332 10.6238C14.5076 10.7529 14.4892 10.9053 14.4762 11.0752C14.45 11.4151 14.444 11.8432 14.4509 12.33C14.4648 13.303 14.5308 14.5342 14.5993 15.8121L14.5996 15.8164C14.6908 17.5172 14.7864 19.3011 14.7732 20.7001C14.7665 21.4008 14.7326 21.9934 14.6603 22.4262C14.624 22.6433 14.5798 22.8085 14.5306 22.9231C14.4783 23.0449 14.4376 23.0695 14.4348 23.0708C14.1449 23.2061 13.7622 23.1498 13.2549 22.9089C12.7543 22.6711 12.2001 22.2868 11.601 21.8704L11.5914 21.8637C10.9629 21.4269 10.2895 20.9589 9.62138 20.6393C8.62866 20.1646 7.91755 20.2708 7.43954 20.6231C6.9864 20.957 6.8024 21.47 6.75485 21.7077C6.73339 21.8151 6.77155 21.9084 6.79794 21.9607C6.82802 22.0204 6.87006 22.0789 6.91455 22.1333C7.00426 22.243 7.13151 22.3693 7.27831 22.5039C7.5722 22.7733 7.97618 23.1043 8.39704 23.4492L8.40191 23.4532C8.87169 23.8382 9.36511 24.2427 9.77294 24.6141C9.9767 24.7996 10.1558 24.9739 10.2981 25.1308C10.443 25.2905 10.5388 25.4203 10.5872 25.5172C10.6991 25.7409 10.9553 26.0821 11.2748 26.4703C11.6002 26.8659 12.0091 27.3314 12.4438 27.8111C13.2839 28.7383 14.2265 29.7255 14.8635 30.3777L15.047 33.8027ZM23.4398 18.7064C23.5515 18.4831 23.6802 18.2201 23.8197 17.9285C23.6659 18.3436 23.564 18.6254 23.5466 18.6777C23.5291 18.7303 23.5254 18.7835 23.5247 18.8217C23.5239 18.8636 23.5266 18.908 23.5309 18.9516C23.5363 19.0067 23.545 19.067 23.5556 19.1295C23.4736 19.0761 23.3879 19.0261 23.3013 18.98C23.2344 18.9444 23.166 18.9106 23.0969 18.8787L23.2724 18.8382L23.3872 18.8117L23.4398 18.7064ZM19 37.25C29.0792 37.25 37.25 29.0792 37.25 19C37.25 8.9208 29.0792 0.75 19 0.75C8.9208 0.75 0.75 8.9208 0.75 19C0.75 29.0792 8.9208 37.25 19 37.25ZM19.3798 25.5798C19.4265 25.7658 19.461 25.959 19.485 26.1563C19.1065 25.1097 18.4638 24.3277 17.8551 23.8115C18.1558 23.8988 18.4015 24.0364 18.6029 24.2081C18.9897 24.5381 19.2383 25.0163 19.3798 25.5798Z" fill="white" stroke="#262262" stroke-width="0.5"/>
</svg>
