<svg width="65" height="25" viewBox="0 0 65 25" fill="none" xmlns="http://www.w3.org/2000/svg">
<g clip-path="url(#clip0)">
<path d="M33.5583 8.42046L36.6507 8.22173C36.7212 8.72441 36.8506 9.0985 37.0622 9.36737C37.4032 9.78822 37.8736 9.99864 38.4967 9.99864C38.9553 9.99864 39.3198 9.89343 39.5668 9.67132C39.8019 9.49596 39.943 9.2154 39.943 8.92314C39.943 8.64258 39.8137 8.3737 39.5903 8.19835C39.3551 7.98793 38.8025 7.7775 37.9324 7.59046C36.5096 7.27482 35.4866 6.85398 34.8869 6.31623C34.2873 5.81355 33.9463 5.07706 33.9698 4.29382C33.9698 3.75607 34.1344 3.21832 34.4401 2.77409C34.7929 2.27141 35.275 1.87395 35.8511 1.65183C36.4743 1.38296 37.3444 1.24268 38.438 1.24268C39.7784 1.24268 40.8014 1.48817 41.5069 1.99085C42.2124 2.48184 42.6357 3.27677 42.765 4.36396L39.7079 4.53931C39.6255 4.07171 39.4609 3.73269 39.1905 3.51058C38.92 3.28846 38.5673 3.18325 38.1087 3.18325C37.7325 3.18325 37.4503 3.26508 37.2621 3.41705C37.0857 3.55734 36.9682 3.76776 36.9799 4.00157C36.9799 4.17692 37.074 4.34058 37.2151 4.44579C37.3679 4.58608 37.7325 4.71467 38.3086 4.83157C39.7314 5.13552 40.7426 5.43946 41.3658 5.7551C41.989 6.07073 42.4358 6.45651 42.7062 6.91243C42.9884 7.38004 43.1295 7.91779 43.1178 8.46723C43.1178 9.12188 42.9296 9.77653 42.5534 10.326C42.1653 10.8988 41.6245 11.343 40.9895 11.6119C40.3193 11.9041 39.4727 12.0561 38.4615 12.0561C36.6742 12.0561 35.4396 11.7171 34.7458 11.0274C34.0521 10.3377 33.6406 9.47258 33.5583 8.42046ZM0.740774 11.8808V1.42972H6.16136C7.16082 1.42972 7.93687 1.51155 8.46599 1.6869C8.98336 1.85057 9.44193 2.18958 9.74765 2.6455C10.0886 3.14818 10.2533 3.73269 10.2415 4.34058C10.2768 5.36932 9.74765 6.3513 8.84226 6.86567C8.48951 7.0644 8.10148 7.20468 7.7017 7.27482C7.99566 7.35666 8.28962 7.49694 8.5483 7.6606C8.74819 7.82426 8.91281 8.01131 9.06567 8.21004C9.24204 8.40877 9.3949 8.63089 9.52424 8.86469L11.0999 11.8925H7.40774L5.66751 8.67765C5.4441 8.26849 5.25597 7.99962 5.0796 7.87102C4.84443 7.70736 4.56223 7.62553 4.28003 7.62553H3.99783V11.8691H0.740774V11.8808ZM3.99783 5.66158H5.37355C5.66751 5.6382 5.94971 5.59143 6.23191 5.52129C6.44356 5.48622 6.63169 5.36932 6.76104 5.19397C7.07851 4.77312 7.03148 4.17692 6.64345 3.81452C6.4318 3.63917 6.02026 3.54565 5.43234 3.54565H3.99783V5.66158ZM0 20.8355L3.09244 20.6367C3.16299 21.1394 3.29233 21.5135 3.50398 21.7824C3.83321 22.2032 4.3153 22.4253 4.9385 22.4253C5.39707 22.4253 5.76158 22.3201 6.0085 22.098C6.24367 21.911 6.38477 21.6421 6.38477 21.3498C6.38477 21.0693 6.25543 20.8004 6.03202 20.625C5.79685 20.4146 5.24421 20.2042 4.36234 20.0172C2.93958 19.7015 1.91661 19.2807 1.31693 18.7429C0.717258 18.2402 0.376266 17.5038 0.399783 16.7205C0.399783 16.1828 0.564399 15.645 0.870116 15.2008C1.22287 14.6981 1.70496 14.3006 2.28111 14.0785C2.90431 13.8097 3.77442 13.6694 4.86795 13.6694C6.20839 13.6694 7.23137 13.9149 7.93687 14.4175C8.64237 14.9202 9.05391 15.7035 9.18325 16.7907L6.12609 16.966C6.04378 16.4984 5.87916 16.1594 5.60872 15.9373C5.35004 15.7152 4.98553 15.6099 4.52695 15.6216C4.15069 15.6216 3.86849 15.7035 3.68035 15.8671C3.49222 16.0074 3.3864 16.2178 3.39815 16.4516C3.39815 16.627 3.49222 16.7907 3.63332 16.8959C3.78618 17.0361 4.15069 17.1647 4.72685 17.2816C6.1496 17.5856 7.16082 17.8895 7.78401 18.2052C8.4072 18.5208 8.85402 18.9066 9.12446 19.3625C9.40666 19.8301 9.54776 20.3679 9.54776 20.9056C9.54776 21.5603 9.34787 22.2032 8.98336 22.7527C8.59533 23.3255 8.05445 23.7697 7.4195 24.0386C6.74928 24.3308 5.90268 24.4828 4.89146 24.4828C3.1042 24.4828 1.86957 24.1438 1.17583 23.4541C0.482091 22.7527 0.0940666 21.8876 0 20.8355H0Z" fill="#262262"/>
<path d="M15.6385 20.0171L18.484 20.8705C18.3312 21.5836 18.0137 22.2616 17.5786 22.8578C17.1788 23.3839 16.6497 23.793 16.05 24.0619C15.4386 24.3308 14.6626 24.4711 13.7219 24.4711C12.5813 24.4711 11.6407 24.3074 10.9234 23.9801C10.1944 23.6528 9.57121 23.0682 9.04208 22.2382C8.51296 21.4082 8.25427 20.3444 8.25427 19.0468C8.25427 17.3167 8.71285 15.984 9.64175 15.0604C10.5707 14.1369 11.8758 13.6693 13.569 13.6693C14.8977 13.6693 15.9325 13.9382 16.6967 14.4642C17.4493 15.002 18.0137 15.8203 18.3899 16.9192L15.5209 17.5505C15.4504 17.305 15.3445 17.0595 15.2034 16.849C15.0271 16.6036 14.8037 16.4165 14.5332 16.2762C14.2628 16.1359 13.9571 16.0775 13.6513 16.0775C12.9106 16.0775 12.3462 16.3698 11.9581 16.966C11.6642 17.3985 11.5113 18.0882 11.5113 19.0234C11.5113 20.1808 11.6877 20.9757 12.0405 21.4082C12.3932 21.8408 12.8871 22.0512 13.5338 22.0512C14.157 22.0512 14.6273 21.8758 14.9448 21.5368C15.2622 21.1744 15.4974 20.6717 15.6385 20.0171ZM22.282 13.8447H25.5272V17.5037H29.0783V13.8447H32.3471V24.2957H29.0783V20.0639H25.5272V24.2957H22.282V13.8447Z" fill="#262262"/>
<path d="M31.9004 19.0702C31.9004 17.3634 32.3825 16.0307 33.3349 15.0838C34.2873 14.1369 35.6278 13.6576 37.3327 13.6576C39.0847 13.6576 40.4252 14.1252 41.3776 15.0604C42.33 15.9956 42.8004 17.3049 42.8004 18.9883C42.8004 20.2158 42.5887 21.2095 42.1772 21.9927C41.7774 22.7643 41.1542 23.3955 40.3899 23.8164C39.6021 24.2489 38.6262 24.471 37.4621 24.471C36.2745 24.471 35.2985 24.284 34.5225 23.9099C33.7229 23.5124 33.0645 22.8929 32.6294 22.133C32.1473 21.3147 31.9004 20.2976 31.9004 19.0702ZM35.1457 19.0818C35.1457 20.134 35.3456 20.8938 35.7336 21.3614C36.1216 21.8174 36.6625 22.0512 37.3445 22.0512C38.0382 22.0512 38.5791 21.829 38.9671 21.3731C39.3552 20.9172 39.5433 20.1106 39.5433 18.9416C39.5433 17.9596 39.3434 17.2348 38.9436 16.7906C38.5438 16.3347 38.003 16.1125 37.321 16.1125C36.7213 16.0892 36.1451 16.3463 35.7454 16.8023C35.3456 17.2582 35.1457 18.018 35.1457 19.0818ZM46.128 19.0702C46.128 17.3634 46.6101 16.0307 47.5625 15.0838C48.5149 14.1369 49.8554 13.6576 51.5603 13.6576C53.3123 13.6576 54.6645 14.1252 55.6052 15.0604C56.5458 15.9956 57.0279 17.3049 57.0279 18.9883C57.0279 20.2158 56.8163 21.2095 56.4047 21.9927C56.005 22.7643 55.3818 23.3955 54.6175 23.8164C53.8297 24.2489 52.8537 24.471 51.6897 24.471C50.5021 24.471 49.5261 24.284 48.7501 23.9099C47.9505 23.5124 47.292 22.8929 46.857 22.133C46.3749 21.3147 46.128 20.2976 46.128 19.0702ZM49.3733 19.0818C49.3733 20.134 49.5732 20.8938 49.9612 21.3614C50.3492 21.8174 50.8901 22.0512 51.5721 22.0512C52.2658 22.0512 52.8067 21.829 53.1947 21.3731C53.5827 20.9172 53.7709 20.1106 53.7709 18.9416C53.7709 17.9596 53.571 17.2348 53.1712 16.7906C52.7714 16.3347 52.2305 16.1125 51.5485 16.1125C50.9489 16.0892 50.361 16.3463 49.9729 16.8023C49.5732 17.2582 49.3733 18.018 49.3733 19.0818Z" fill="#262262"/>
<path d="M56.6869 13.8447H59.9322V21.7239H65.0001V24.2958H56.6752V13.8447H56.6869Z" fill="#262262"/>
<path d="M53.0941 13.2431C56.3587 10.7915 57.3665 6.63718 55.345 3.96405C53.3235 1.29091 49.0383 1.11127 45.7737 3.56281C42.5091 6.01435 41.5014 10.1687 43.5229 12.8418C45.5444 15.515 49.8296 15.6946 53.0941 13.2431Z" stroke="#262262" stroke-width="0.589315" stroke-miterlimit="10"/>
<path d="M53.0941 13.2431C56.3587 10.7915 57.3665 6.63718 55.345 3.96405C53.3235 1.29091 49.0383 1.11127 45.7737 3.56281C42.5091 6.01435 41.5014 10.1687 43.5229 12.8418C45.5444 15.515 49.8296 15.6946 53.0941 13.2431Z" stroke="#262262" stroke-width="0.589315" stroke-miterlimit="10"/>
<path d="M46.1398 7.63717L47.3156 6.81885L48.7619 8.86464C49.0088 9.19197 49.197 9.54267 49.3381 9.92845C49.4204 10.2207 49.3969 10.5363 49.2793 10.8169C49.1264 11.1676 48.8795 11.4599 48.5503 11.6703C48.1622 11.9392 47.833 12.0911 47.5508 12.1379C47.2804 12.1847 46.9982 12.1379 46.7395 12.021C46.4573 11.8807 46.2104 11.682 46.0222 11.4248L47.0334 10.4896C47.1157 10.6182 47.2216 10.7351 47.3392 10.8286C47.4215 10.887 47.5155 10.9221 47.6214 10.9221C47.7037 10.9221 47.786 10.887 47.8448 10.8403C47.9623 10.7701 48.0447 10.6299 48.0329 10.4896C47.9976 10.2908 47.9153 10.0921 47.786 9.94014L46.1398 7.63717ZM49.6673 8.93478L50.7373 8.09309C50.8549 8.23337 51.0078 8.33858 51.1724 8.39703C51.4075 8.46717 51.6545 8.42041 51.8544 8.26844C51.9955 8.17492 52.113 8.04632 52.1601 7.88266C52.2306 7.67224 52.113 7.43843 51.9014 7.36829C51.8661 7.3566 51.8308 7.34491 51.7956 7.34491C51.6545 7.33322 51.4075 7.39167 51.043 7.54365C50.4434 7.78914 49.973 7.88266 49.6203 7.84759C49.2793 7.81252 48.9618 7.63717 48.7737 7.34491C48.6326 7.14618 48.562 6.91237 48.5503 6.67857C48.5503 6.4097 48.6208 6.14082 48.7737 5.91871C48.9971 5.60307 49.2675 5.3342 49.5967 5.12377C50.0906 4.78476 50.5257 4.62109 50.9019 4.62109C51.2782 4.62109 51.6309 4.79645 51.9602 5.15884L50.9019 5.98885C50.6903 5.71997 50.2905 5.66152 50.0201 5.87195L49.9848 5.90702C49.8672 5.97716 49.7849 6.08237 49.7379 6.21096C49.7026 6.30448 49.7261 6.4097 49.7849 6.49153C49.8319 6.54998 49.9025 6.59674 49.9848 6.59674C50.0788 6.60843 50.2435 6.56167 50.4786 6.45646C51.0665 6.21096 51.5134 6.07068 51.8191 6.02392C52.0778 5.97716 52.3482 6.00054 52.5951 6.10575C52.8185 6.19927 53.0067 6.36293 53.136 6.56167C53.3006 6.79547 53.3947 7.07604 53.4065 7.36829C53.4182 7.67224 53.3359 7.96449 53.1713 8.22168C52.9596 8.53731 52.6892 8.80619 52.3717 9.01661C51.725 9.46084 51.1959 9.64788 50.7726 9.57774C50.314 9.5076 49.9377 9.2738 49.6673 8.93478Z" fill="#262262"/>
</g>
<defs>
<clipPath id="clip0">
<rect width="65" height="24" fill="white" transform="translate(0 0.471069)"/>
</clipPath>
</defs>
</svg>
