<svg width="26" height="27" viewBox="0 0 26 27" fill="none" xmlns="http://www.w3.org/2000/svg">
<path d="M7.65918 7.65697C7.67691 7.67863 7.69266 7.69636 7.71039 7.71803C7.81676 7.84606 7.931 7.98591 8.05509 8.1356C8.11615 8.21045 8.18115 8.28727 8.24615 8.36606C8.57509 8.76197 8.94736 9.21106 9.33933 9.67984C9.49494 9.86697 9.65448 10.058 9.81403 10.2491C9.97357 10.4401 10.1351 10.6332 10.2946 10.8242C10.3045 10.8361 10.3143 10.8479 10.3242 10.8597C10.3971 10.9464 10.468 11.033 10.5408 11.1177C10.5527 11.1315 10.5645 11.1473 10.5783 11.1611C10.6354 11.228 10.6905 11.295 10.7457 11.362C10.7811 11.4053 10.8166 11.4467 10.8521 11.49C10.8619 11.5018 10.8718 11.5136 10.8816 11.5255C10.9033 11.553 10.9269 11.5786 10.9486 11.6062C10.9761 11.6397 11.0037 11.6732 11.0313 11.7067C11.0431 11.7224 11.0569 11.7362 11.0687 11.752C11.1022 11.7914 11.1357 11.8327 11.1692 11.8721C11.1928 11.8997 11.2145 11.9273 11.2381 11.9548C11.2657 11.9883 11.2933 12.0218 11.3208 12.0553C11.3445 12.0848 11.3701 12.1124 11.3937 12.142C11.4055 12.1558 11.4174 12.1715 11.4311 12.1853C11.4686 12.2306 11.506 12.2759 11.5434 12.3192C11.5552 12.333 11.5671 12.3468 11.5789 12.3606C11.6005 12.3882 11.6242 12.4138 11.6458 12.4394C11.6695 12.467 11.6911 12.4945 11.7148 12.5221C11.7266 12.5359 11.7365 12.5477 11.7483 12.5615C11.8861 12.725 12.0142 12.8806 12.1363 13.0244C12.1422 13.0303 12.1481 13.0382 12.154 13.0441C12.1915 13.0874 12.2249 13.1288 12.2604 13.1701C12.2801 13.1938 12.2998 13.2174 12.3175 13.2391C12.3254 13.2489 12.3352 13.2608 12.3431 13.2706C12.4022 13.3395 12.4554 13.4045 12.5086 13.4676C12.5736 13.5444 12.6346 13.6173 12.6878 13.6803C12.7036 13.7 12.7174 13.7158 12.7311 13.7335L12.7331 13.7354C12.7902 13.8044 12.8415 13.8655 12.8828 13.9147C12.8828 13.9147 12.8828 13.9147 12.8848 13.9167C12.9045 13.9403 12.9242 13.962 12.9399 13.9817C12.9439 13.9856 12.9478 13.9876 12.9518 13.9915C12.9734 14.0073 13.0089 14.0092 13.0305 13.9915C13.0345 13.9876 13.0384 13.9856 13.0424 13.9817C13.0561 13.9659 13.0719 13.9462 13.0896 13.9265C13.1015 13.9108 13.1152 13.895 13.129 13.8792C13.1605 13.8418 13.196 13.8005 13.2334 13.7551C13.2472 13.7394 13.259 13.7256 13.2708 13.7098C13.2748 13.7059 13.2768 13.702 13.2807 13.698C13.3004 13.6744 13.3221 13.6488 13.3437 13.6232C13.3437 13.6212 13.3457 13.6212 13.3457 13.6212C13.3634 13.5995 13.3831 13.5759 13.4028 13.5523C13.4166 13.5345 13.4324 13.5168 13.4481 13.4971C13.5033 13.4301 13.5624 13.3612 13.6254 13.2844C13.6333 13.2745 13.6411 13.2647 13.651 13.2548C13.6766 13.2233 13.7061 13.1898 13.7337 13.1564C13.7593 13.1268 13.7849 13.0953 13.8105 13.0638C13.8992 12.9574 13.9937 12.8451 14.0922 12.727C14.1119 12.7053 14.1296 12.6817 14.1493 12.66C14.1552 12.6521 14.1631 12.6442 14.169 12.6364C14.1966 12.6029 14.2261 12.5694 14.2537 12.5339C14.2833 12.4985 14.3128 12.463 14.3443 12.4256C14.3621 12.4039 14.3798 12.3842 14.3975 12.3626C14.4054 12.3527 14.4133 12.3448 14.4211 12.335C14.4625 12.2838 14.5058 12.2326 14.5492 12.1814C14.561 12.1676 14.5708 12.1558 14.5827 12.142C14.5965 12.1262 14.6102 12.1104 14.6221 12.0947C14.7284 11.9686 14.8368 11.8386 14.9471 11.7047C14.9727 11.6732 15.0002 11.6417 15.0258 11.6101C15.0298 11.6062 15.0337 11.6003 15.0377 11.5964C15.0711 11.555 15.1066 11.5136 15.1421 11.4723C15.1716 11.4388 15.1992 11.4033 15.2287 11.3698C15.2839 11.3048 15.339 11.2379 15.3942 11.1709C15.4099 11.1512 15.4257 11.1315 15.4434 11.1118C15.5143 11.0271 15.5852 10.9424 15.6561 10.8577C15.666 10.8479 15.6739 10.8361 15.6837 10.8262C15.8433 10.6351 16.0028 10.4421 16.1643 10.2511C16.3239 10.06 16.4834 9.86894 16.639 9.68181C17.029 9.21303 17.4033 8.76394 17.7322 8.36803C17.7972 8.28924 17.8622 8.21242 17.9233 8.13757C18.0474 7.98787 18.1616 7.84803 18.268 7.72C18.2857 7.69833 18.2995 7.6806 18.3172 7.66091C16.9108 6.3806 15.0416 5.59863 12.9911 5.59863C10.9348 5.59863 9.06554 6.37863 7.65918 7.65697Z" fill="#262262"/>
<path d="M15.2599 17.2867C15.1477 17.1843 14.9704 17.2139 14.8936 17.3458L13.6921 19.4337L13.3946 19.9478C13.3395 20.0423 13.239 20.1014 13.1287 20.1014L12.9869 20.1014L12.849 20.1014L12.8451 20.1014C12.7348 20.1014 12.6324 20.0423 12.5772 19.9458L12.5752 19.9439L11.0783 17.3419C11.0034 17.2099 10.8242 17.1823 10.7119 17.2828L9.59509 18.2795L8.04297 19.6661C9.39615 20.7514 11.1137 21.4014 12.9849 21.4014C14.8562 21.4014 16.5737 20.7514 17.9289 19.6642L17.3321 19.1304L15.2599 17.2867Z" fill="#262262"/>
<path d="M6.81024 12.7667C6.44781 12.1581 6.02236 11.4431 5.66387 10.8384C5.63827 10.795 5.61266 10.7517 5.58706 10.7103C5.25812 11.579 5.0769 12.5205 5.0769 13.5034C5.0769 14.5788 5.2916 15.6011 5.6816 16.5347L5.98296 16.1664L7.60206 14.1868C7.60403 14.1849 7.61781 14.1691 7.63554 14.1455C7.63357 14.1435 7.6316 14.1415 7.62963 14.1376C7.58039 14.0608 7.23766 13.4856 6.81024 12.7667Z" fill="#262262"/>
<path d="M13 0.47168C5.82045 0.47168 -4.08792e-09 6.2882 -9.13102e-09 13.4638C-1.41741e-08 20.6394 5.82045 26.4559 13 26.4559C20.1795 26.4559 26 20.6394 26 13.4638C26 6.28819 20.1795 0.47168 13 0.47168ZM23.1636 20.3144L23.1577 20.3144L18.6727 20.3144C18.6668 20.3144 18.6589 20.3124 18.653 20.3105C18.6511 20.3124 18.6511 20.3124 18.6491 20.3144L18.6471 20.3124C17.1108 21.5888 15.1371 22.357 12.9842 22.357C10.8314 22.357 8.85773 21.5888 7.32333 20.3124L7.32136 20.3124C7.31939 20.3105 7.31939 20.3105 7.31742 20.3085C7.31152 20.3105 7.30561 20.3124 7.29773 20.3124L2.81273 20.3124L2.80682 20.3124C2.71818 20.3124 2.67091 20.21 2.72606 20.143L5.005 17.3559C4.4397 16.1899 4.12258 14.882 4.12258 13.4993C4.12258 8.6085 8.08955 4.6435 12.9842 4.6435C17.8789 4.6435 21.8459 8.6085 21.8459 13.4993C21.8459 14.88 21.5288 16.1879 20.9655 17.354L21.8302 18.4097L23.2444 20.1391L23.2483 20.143C23.2995 20.212 23.2523 20.3144 23.1636 20.3144Z" fill="#262262"/>
<path d="M20.3099 10.8362C19.9495 11.4409 19.526 12.1559 19.1635 12.7646C18.7341 13.4855 18.3934 14.0587 18.3461 14.1375C18.3441 14.1394 18.3422 14.1414 18.3402 14.1434L18.3698 14.1808C18.3717 14.1828 18.3717 14.1847 18.3737 14.1867L20.2902 16.5306C20.6782 15.597 20.8929 14.5747 20.8929 13.5012C20.8929 12.5184 20.7117 11.5788 20.3848 10.7122C20.3591 10.7535 20.3355 10.7949 20.3099 10.8362Z" fill="#262262"/>
</svg>
