<svg width="248" height="248" viewBox="0 0 248 248" fill="none" xmlns="http://www.w3.org/2000/svg">
<g opacity="0.8" filter="url(#filter0_f)">
<path d="M8.89928 8.90238C11.4316 6.36587 15.5374 6.36587 18.0698 8.90238L238.162 229.355C240.694 231.891 240.694 236.004 238.162 238.54C235.63 241.077 231.524 241.077 228.992 238.54L8.89927 18.0879C6.36691 15.5514 6.36691 11.4389 8.89928 8.90238Z" fill="#FC3B3B"/>
<path d="M239.101 9.45957C241.633 11.9961 241.633 16.1086 239.101 18.6451L19.0085 239.098C16.4761 241.634 12.3704 241.634 9.83799 239.098C7.30562 236.561 7.30562 232.449 9.83799 229.912L229.93 9.45956C232.463 6.92305 236.568 6.92306 239.101 9.45957Z" fill="#FC3B3B"/>
</g>
<path d="M8.89928 8.90238C11.4316 6.36587 15.5374 6.36587 18.0698 8.90238L238.162 229.355C240.694 231.891 240.694 236.004 238.162 238.54C235.63 241.077 231.524 241.077 228.992 238.54L8.89927 18.0879C6.36691 15.5514 6.36691 11.4389 8.89928 8.90238Z" fill="#FC3B3B"/>
<path d="M239.101 9.45957C241.633 11.9961 241.633 16.1086 239.101 18.6451L19.0085 239.098C16.4761 241.634 12.3704 241.634 9.83799 239.098C7.30562 236.561 7.30562 232.449 9.83799 229.912L229.93 9.45956C232.463 6.92305 236.568 6.92306 239.101 9.45957Z" fill="#FC3B3B"/>
<defs>
<filter id="filter0_f" x="0.5" y="0.5" width="247" height="247" filterUnits="userSpaceOnUse" color-interpolation-filters="sRGB">
<feFlood flood-opacity="0" result="BackgroundImageFix"/>
<feBlend mode="normal" in="SourceGraphic" in2="BackgroundImageFix" result="shape"/>
<feGaussianBlur stdDeviation="3.25" result="effect1_foregroundBlur"/>
</filter>
</defs>
</svg>
