<svg width="24" height="24" viewBox="0 0 24 24" fill="none" xmlns="http://www.w3.org/2000/svg">
<path d="M14 7.19999C14 7.08953 14.0895 6.99999 14.2 6.99999H17.8C17.9105 6.99999 18 6.91044 18 6.79999V3.19999C18 3.08953 17.9105 2.99999 17.8 2.99999H12.2C12.0895 2.99999 12 3.08953 12 3.19999V7.52714C12 7.58019 12.0211 7.63106 12.0586 7.66856L13.6586 9.26856C13.7846 9.39456 14 9.30532 14 9.12714V7.19999ZM12 10.44L5.11523 3.56429C4.72567 3.17524 4.09454 3.17545 3.70523 3.56475C3.31574 3.95424 3.31574 4.58573 3.70523 4.97522L12 13.27V13.55C11.06 13.01 9.9 12.8 8.67 13.23C7.33 13.71 6.3 14.9 6.06 16.3C5.94905 16.9299 5.99052 17.5773 6.18094 18.1879C6.37136 18.7986 6.7052 19.3547 7.15454 19.81C7.60389 20.2652 8.15569 20.6062 8.7638 20.8045C9.37191 21.0029 10.0187 21.0527 10.65 20.95C12.61 20.64 14 18.84 14 16.85V15.27L19.0248 20.2948C19.4143 20.6843 20.0457 20.6843 20.4352 20.2948C20.8245 19.9055 20.8247 19.2743 20.4356 18.8848L12 10.44ZM10 19C8.9 19 8 18.1 8 17C8 15.9 8.9 15 10 15C11.1 15 12 15.9 12 17C12 18.1 11.1 19 10 19Z" fill="white"/>
</svg>
